<svg width="50" height="50" viewBox="0 0 50 50" fill="none" xmlns="http://www.w3.org/2000/svg">
<rect width="50" height="50" fill="black"/>
<path d="M37.0091 36.79C37.0091 36.02 37.1041 35.405 37.2941 34.945C37.4941 34.475 37.8591 34.095 38.3891 33.805C38.7291 33.625 38.9841 33.46 39.1541 33.31C39.3341 33.15 39.4541 32.985 39.5141 32.815C39.5741 32.645 39.6041 32.44 39.6041 32.2C39.6041 31.85 39.4891 31.55 39.2591 31.3C39.0291 31.05 38.6541 30.925 38.1341 30.925C37.5641 30.925 37.1391 31.065 36.8591 31.345C36.5891 31.615 36.4191 32.03 36.3491 32.59L34.2191 32.485C34.2791 31.825 34.4691 31.245 34.7891 30.745C35.1191 30.235 35.5641 29.835 36.1241 29.545C36.6941 29.255 37.3641 29.11 38.1341 29.11C38.8941 29.11 39.5391 29.245 40.0691 29.515C40.5991 29.775 41.0041 30.135 41.2841 30.595C41.5741 31.055 41.7191 31.58 41.7191 32.17C41.7191 32.6 41.6541 32.97 41.5241 33.28C41.4041 33.59 41.2141 33.87 40.9541 34.12C40.6941 34.36 40.3591 34.6 39.9491 34.84C39.6591 35.01 39.4341 35.185 39.2741 35.365C39.1141 35.535 39.0041 35.735 38.9441 35.965C38.8841 36.185 38.8541 36.46 38.8541 36.79H37.0091ZM36.7841 40V37.735H39.1541V40H36.7841ZM29.0291 36.79C29.0291 36.02 29.1291 35.405 29.3291 34.945C29.5191 34.475 29.8791 34.095 30.4091 33.805C30.7491 33.625 31.0091 33.46 31.1891 33.31C31.3591 33.15 31.4741 32.985 31.5341 32.815C31.5941 32.645 31.6241 32.44 31.6241 32.2C31.6241 31.85 31.5091 31.55 31.2791 31.3C31.0491 31.05 30.6741 30.925 30.1541 30.925C29.5841 30.925 29.1641 31.065 28.8941 31.345C28.6141 31.615 28.4391 32.03 28.3691 32.59L26.2391 32.485C26.2991 31.825 26.4941 31.245 26.8241 30.745C27.1441 30.235 27.5891 29.835 28.1591 29.545C28.7191 29.255 29.3841 29.11 30.1541 29.11C30.9141 29.11 31.5591 29.245 32.0891 29.515C32.6191 29.775 33.0291 30.135 33.3191 30.595C33.5991 31.055 33.7391 31.58 33.7391 32.17C33.7391 32.6 33.6791 32.97 33.5591 33.28C33.4291 33.59 33.2341 33.87 32.9741 34.12C32.7141 34.36 32.3791 34.6 31.9691 34.84C31.6791 35.01 31.4541 35.185 31.2941 35.365C31.1341 35.535 31.0241 35.735 30.9641 35.965C30.9041 36.185 30.8741 36.46 30.8741 36.79H29.0291ZM28.8041 40V37.735H31.1741V40H28.8041Z" fill="white"/>
</svg>
