<svg width="252" height="251" viewBox="0 0 252 251" fill="none" xmlns="http://www.w3.org/2000/svg">
<rect x="1" y="1" width="250" height="249" rx="20" stroke="black" stroke-width="2"/>
<path d="M96 209H233" stroke="black" stroke-width="2" stroke-linecap="round" stroke-linejoin="round"/>
<path d="M168.986 43.2418C173.052 39.2452 178.567 37 184.318 37C187.165 37 189.984 37.5512 192.615 38.6222C195.246 39.6931 197.636 41.2629 199.649 43.2418C201.663 45.2206 203.26 47.5699 204.35 50.1554C205.439 52.741 206 55.5121 206 58.3107C206 61.1092 205.439 63.8804 204.35 66.4659C203.26 69.0515 201.663 71.4007 199.649 73.3796L71.8847 198.954L31 209L41.2212 168.816L168.986 43.2418Z" stroke="black" stroke-width="2" stroke-linecap="round" stroke-linejoin="round"/>
<path d="M105.42 197.636C105.42 198.557 105.254 199.352 104.922 200.023C104.589 200.693 104.134 201.21 103.554 201.574C102.974 201.938 102.313 202.119 101.568 202.119C100.824 202.119 100.162 201.938 99.5824 201.574C99.0028 201.21 98.5469 200.693 98.2145 200.023C97.8821 199.352 97.7159 198.557 97.7159 197.636C97.7159 196.716 97.8821 195.92 98.2145 195.25C98.5469 194.58 99.0028 194.062 99.5824 193.699C100.162 193.335 100.824 193.153 101.568 193.153C102.313 193.153 102.974 193.335 103.554 193.699C104.134 194.062 104.589 194.58 104.922 195.25C105.254 195.92 105.42 196.716 105.42 197.636ZM104.398 197.636C104.398 196.881 104.271 196.243 104.018 195.723C103.768 195.203 103.429 194.81 103 194.543C102.574 194.276 102.097 194.142 101.568 194.142C101.04 194.142 100.561 194.276 100.132 194.543C99.706 194.81 99.3665 195.203 99.1136 195.723C98.8636 196.243 98.7386 196.881 98.7386 197.636C98.7386 198.392 98.8636 199.03 99.1136 199.55C99.3665 200.07 99.706 200.463 100.132 200.73C100.561 200.997 101.04 201.131 101.568 201.131C102.097 201.131 102.574 200.997 103 200.73C103.429 200.463 103.768 200.07 104.018 199.55C104.271 199.03 104.398 198.392 104.398 197.636ZM109.72 202.136C109.129 202.136 108.611 201.996 108.165 201.714C107.722 201.433 107.375 201.04 107.125 200.534C106.878 200.028 106.754 199.437 106.754 198.761C106.754 198.08 106.878 197.484 107.125 196.976C107.375 196.467 107.722 196.072 108.165 195.791C108.611 195.51 109.129 195.369 109.72 195.369C110.311 195.369 110.828 195.51 111.271 195.791C111.717 196.072 112.064 196.467 112.311 196.976C112.561 197.484 112.686 198.08 112.686 198.761C112.686 199.437 112.561 200.028 112.311 200.534C112.064 201.04 111.717 201.433 111.271 201.714C110.828 201.996 110.311 202.136 109.72 202.136ZM109.72 201.233C110.169 201.233 110.538 201.118 110.828 200.888C111.118 200.658 111.332 200.355 111.472 199.98C111.611 199.605 111.68 199.199 111.68 198.761C111.68 198.324 111.611 197.916 111.472 197.538C111.332 197.161 111.118 196.855 110.828 196.622C110.538 196.389 110.169 196.273 109.72 196.273C109.271 196.273 108.902 196.389 108.612 196.622C108.322 196.855 108.108 197.161 107.969 197.538C107.83 197.916 107.76 198.324 107.76 198.761C107.76 199.199 107.83 199.605 107.969 199.98C108.108 200.355 108.322 200.658 108.612 200.888C108.902 201.118 109.271 201.233 109.72 201.233ZM114.221 204.455V195.455H115.193V196.494H115.312C115.386 196.381 115.488 196.236 115.619 196.06C115.752 195.881 115.943 195.722 116.19 195.582C116.44 195.44 116.778 195.369 117.204 195.369C117.755 195.369 118.241 195.507 118.662 195.783C119.082 196.058 119.41 196.449 119.646 196.955C119.882 197.46 120 198.057 120 198.744C120 199.438 119.882 200.038 119.646 200.547C119.41 201.053 119.083 201.445 118.666 201.723C118.248 201.999 117.767 202.136 117.221 202.136C116.801 202.136 116.464 202.067 116.211 201.928C115.958 201.786 115.764 201.625 115.627 201.446C115.491 201.264 115.386 201.114 115.312 200.994H115.227V204.455H114.221ZM115.21 198.727C115.21 199.222 115.282 199.658 115.427 200.036C115.572 200.411 115.784 200.705 116.062 200.918C116.341 201.128 116.681 201.233 117.085 201.233C117.505 201.233 117.856 201.122 118.137 200.901C118.422 200.676 118.635 200.375 118.777 199.997C118.922 199.616 118.994 199.193 118.994 198.727C118.994 198.267 118.923 197.852 118.781 197.483C118.642 197.111 118.43 196.817 118.146 196.601C117.865 196.382 117.511 196.273 117.085 196.273C116.676 196.273 116.332 196.376 116.054 196.584C115.775 196.788 115.565 197.075 115.423 197.445C115.281 197.811 115.21 198.239 115.21 198.727ZM126.17 196.92L125.267 197.176C125.21 197.026 125.126 196.879 125.015 196.737C124.907 196.592 124.76 196.473 124.572 196.379C124.385 196.286 124.145 196.239 123.852 196.239C123.451 196.239 123.118 196.331 122.85 196.516C122.586 196.697 122.454 196.929 122.454 197.21C122.454 197.46 122.545 197.658 122.727 197.803C122.909 197.947 123.193 198.068 123.579 198.165L124.551 198.403C125.136 198.545 125.572 198.763 125.859 199.055C126.146 199.345 126.289 199.719 126.289 200.176C126.289 200.551 126.181 200.886 125.966 201.182C125.752 201.477 125.454 201.71 125.071 201.881C124.687 202.051 124.241 202.136 123.733 202.136C123.065 202.136 122.512 201.991 122.075 201.702C121.637 201.412 121.36 200.989 121.244 200.432L122.199 200.193C122.289 200.545 122.461 200.81 122.714 200.986C122.97 201.162 123.304 201.25 123.716 201.25C124.184 201.25 124.556 201.151 124.832 200.952C125.11 200.75 125.25 200.509 125.25 200.227C125.25 200 125.17 199.81 125.011 199.656C124.852 199.5 124.608 199.384 124.278 199.307L123.187 199.051C122.588 198.909 122.147 198.689 121.866 198.391C121.588 198.089 121.449 197.713 121.449 197.261C121.449 196.892 121.552 196.565 121.76 196.281C121.97 195.997 122.255 195.774 122.616 195.612C122.98 195.45 123.392 195.369 123.852 195.369C124.5 195.369 125.008 195.511 125.377 195.795C125.75 196.08 126.014 196.455 126.17 196.92ZM133.837 202.136C133.224 202.136 132.695 201.991 132.252 201.702C131.809 201.412 131.468 201.013 131.229 200.504C130.991 199.996 130.871 199.415 130.871 198.761C130.871 198.097 130.994 197.51 131.238 197.001C131.485 196.49 131.829 196.091 132.269 195.804C132.712 195.514 133.229 195.369 133.82 195.369C134.281 195.369 134.695 195.455 135.065 195.625C135.434 195.795 135.737 196.034 135.972 196.341C136.208 196.648 136.354 197.006 136.411 197.415H135.406C135.329 197.116 135.158 196.852 134.894 196.622C134.633 196.389 134.281 196.273 133.837 196.273C133.445 196.273 133.102 196.375 132.806 196.58C132.513 196.781 132.285 197.067 132.12 197.436C131.958 197.803 131.877 198.233 131.877 198.727C131.877 199.233 131.957 199.673 132.116 200.048C132.278 200.423 132.505 200.714 132.798 200.922C133.093 201.129 133.44 201.233 133.837 201.233C134.099 201.233 134.336 201.188 134.549 201.097C134.762 201.006 134.942 200.875 135.09 200.705C135.238 200.534 135.343 200.33 135.406 200.091H136.411C136.354 200.477 136.214 200.825 135.989 201.135C135.768 201.442 135.474 201.686 135.107 201.868C134.744 202.047 134.32 202.136 133.837 202.136ZM140.54 202.136C139.95 202.136 139.431 201.996 138.985 201.714C138.542 201.433 138.195 201.04 137.945 200.534C137.698 200.028 137.575 199.437 137.575 198.761C137.575 198.08 137.698 197.484 137.945 196.976C138.195 196.467 138.542 196.072 138.985 195.791C139.431 195.51 139.95 195.369 140.54 195.369C141.131 195.369 141.648 195.51 142.092 195.791C142.538 196.072 142.884 196.467 143.131 196.976C143.381 197.484 143.506 198.08 143.506 198.761C143.506 199.437 143.381 200.028 143.131 200.534C142.884 201.04 142.538 201.433 142.092 201.714C141.648 201.996 141.131 202.136 140.54 202.136ZM140.54 201.233C140.989 201.233 141.359 201.118 141.648 200.888C141.938 200.658 142.153 200.355 142.292 199.98C142.431 199.605 142.501 199.199 142.501 198.761C142.501 198.324 142.431 197.916 142.292 197.538C142.153 197.161 141.938 196.855 141.648 196.622C141.359 196.389 140.989 196.273 140.54 196.273C140.092 196.273 139.722 196.389 139.433 196.622C139.143 196.855 138.928 197.161 138.789 197.538C138.65 197.916 138.58 198.324 138.58 198.761C138.58 199.199 138.65 199.605 138.789 199.98C138.928 200.355 139.143 200.658 139.433 200.888C139.722 201.118 140.092 201.233 140.54 201.233ZM146.047 198.062V202H145.042V195.455H146.013V196.477H146.098C146.252 196.145 146.485 195.878 146.797 195.676C147.11 195.472 147.513 195.369 148.007 195.369C148.451 195.369 148.838 195.46 149.171 195.642C149.503 195.821 149.762 196.094 149.946 196.46C150.131 196.824 150.223 197.284 150.223 197.841V202H149.218V197.909C149.218 197.395 149.084 196.994 148.817 196.707C148.55 196.418 148.184 196.273 147.718 196.273C147.397 196.273 147.11 196.342 146.857 196.482C146.607 196.621 146.409 196.824 146.265 197.091C146.12 197.358 146.047 197.682 146.047 198.062ZM154.908 195.455V196.307H151.516V195.455H154.908ZM152.504 193.886H153.51V200.125C153.51 200.409 153.551 200.622 153.634 200.764C153.719 200.903 153.827 200.997 153.957 201.045C154.091 201.091 154.232 201.114 154.379 201.114C154.49 201.114 154.581 201.108 154.652 201.097C154.723 201.082 154.78 201.071 154.822 201.062L155.027 201.966C154.959 201.991 154.864 202.017 154.741 202.043C154.619 202.071 154.464 202.085 154.277 202.085C153.993 202.085 153.714 202.024 153.442 201.902C153.172 201.78 152.947 201.594 152.768 201.344C152.592 201.094 152.504 200.778 152.504 200.398V193.886ZM159.094 202.136C158.464 202.136 157.92 201.997 157.462 201.719C157.008 201.438 156.657 201.045 156.41 200.543C156.165 200.037 156.043 199.449 156.043 198.778C156.043 198.108 156.165 197.517 156.41 197.006C156.657 196.491 157.001 196.091 157.441 195.804C157.884 195.514 158.401 195.369 158.992 195.369C159.333 195.369 159.67 195.426 160.002 195.54C160.335 195.653 160.637 195.838 160.91 196.094C161.183 196.347 161.4 196.682 161.562 197.099C161.724 197.517 161.805 198.031 161.805 198.642V199.068H156.759V198.199H160.782C160.782 197.83 160.708 197.5 160.56 197.21C160.415 196.92 160.208 196.692 159.938 196.524C159.671 196.357 159.356 196.273 158.992 196.273C158.592 196.273 158.245 196.372 157.952 196.571C157.663 196.767 157.44 197.023 157.283 197.338C157.127 197.653 157.049 197.991 157.049 198.352V198.932C157.049 199.426 157.134 199.845 157.305 200.189C157.478 200.53 157.718 200.79 158.025 200.969C158.332 201.145 158.688 201.233 159.094 201.233C159.359 201.233 159.597 201.196 159.81 201.122C160.026 201.045 160.212 200.932 160.369 200.781C160.525 200.628 160.646 200.437 160.731 200.21L161.702 200.483C161.6 200.812 161.428 201.102 161.187 201.352C160.945 201.599 160.647 201.793 160.292 201.932C159.937 202.068 159.538 202.136 159.094 202.136ZM164.34 198.062V202H163.335V195.455H164.306V196.477H164.391C164.545 196.145 164.778 195.878 165.09 195.676C165.403 195.472 165.806 195.369 166.3 195.369C166.744 195.369 167.131 195.46 167.464 195.642C167.796 195.821 168.055 196.094 168.239 196.46C168.424 196.824 168.516 197.284 168.516 197.841V202H167.511V197.909C167.511 197.395 167.377 196.994 167.11 196.707C166.843 196.418 166.477 196.273 166.011 196.273C165.69 196.273 165.403 196.342 165.15 196.482C164.9 196.621 164.702 196.824 164.558 197.091C164.413 197.358 164.34 197.682 164.34 198.062ZM173.201 195.455V196.307H169.809V195.455H173.201ZM170.797 193.886H171.803V200.125C171.803 200.409 171.844 200.622 171.926 200.764C172.012 200.903 172.12 200.997 172.25 201.045C172.384 201.091 172.525 201.114 172.672 201.114C172.783 201.114 172.874 201.108 172.945 201.097C173.016 201.082 173.073 201.071 173.115 201.062L173.32 201.966C173.252 201.991 173.157 202.017 173.034 202.043C172.912 202.071 172.757 202.085 172.57 202.085C172.286 202.085 172.007 202.024 171.735 201.902C171.465 201.78 171.24 201.594 171.061 201.344C170.885 201.094 170.797 200.778 170.797 200.398V193.886ZM179.094 198.062V202H178.088V195.455H179.06V196.477H179.145C179.299 196.145 179.532 195.878 179.844 195.676C180.157 195.472 180.56 195.369 181.054 195.369C181.498 195.369 181.885 195.46 182.218 195.642C182.55 195.821 182.809 196.094 182.993 196.46C183.178 196.824 183.27 197.284 183.27 197.841V202H182.265V197.909C182.265 197.395 182.131 196.994 181.864 196.707C181.597 196.418 181.23 196.273 180.765 196.273C180.444 196.273 180.157 196.342 179.904 196.482C179.654 196.621 179.456 196.824 179.311 197.091C179.167 197.358 179.094 197.682 179.094 198.062ZM187.767 202.136C187.176 202.136 186.658 201.996 186.212 201.714C185.768 201.433 185.422 201.04 185.172 200.534C184.925 200.028 184.801 199.437 184.801 198.761C184.801 198.08 184.925 197.484 185.172 196.976C185.422 196.467 185.768 196.072 186.212 195.791C186.658 195.51 187.176 195.369 187.767 195.369C188.358 195.369 188.875 195.51 189.318 195.791C189.764 196.072 190.111 196.467 190.358 196.976C190.608 197.484 190.733 198.08 190.733 198.761C190.733 199.437 190.608 200.028 190.358 200.534C190.111 201.04 189.764 201.433 189.318 201.714C188.875 201.996 188.358 202.136 187.767 202.136ZM187.767 201.233C188.216 201.233 188.585 201.118 188.875 200.888C189.165 200.658 189.379 200.355 189.518 199.98C189.658 199.605 189.727 199.199 189.727 198.761C189.727 198.324 189.658 197.916 189.518 197.538C189.379 197.161 189.165 196.855 188.875 196.622C188.585 196.389 188.216 196.273 187.767 196.273C187.318 196.273 186.949 196.389 186.659 196.622C186.369 196.855 186.155 197.161 186.016 197.538C185.876 197.916 185.807 198.324 185.807 198.761C185.807 199.199 185.876 199.605 186.016 199.98C186.155 200.355 186.369 200.658 186.659 200.888C186.949 201.118 187.318 201.233 187.767 201.233ZM195.115 195.455V196.307H191.723V195.455H195.115ZM192.711 193.886H193.717V200.125C193.717 200.409 193.758 200.622 193.841 200.764C193.926 200.903 194.034 200.997 194.164 201.045C194.298 201.091 194.439 201.114 194.586 201.114C194.697 201.114 194.788 201.108 194.859 201.097C194.93 201.082 194.987 201.071 195.029 201.062L195.234 201.966C195.166 201.991 195.071 202.017 194.949 202.043C194.826 202.071 194.672 202.085 194.484 202.085C194.2 202.085 193.922 202.024 193.649 201.902C193.379 201.78 193.154 201.594 192.975 201.344C192.799 201.094 192.711 200.778 192.711 200.398V193.886ZM202.917 195.455V196.307H199.389V195.455H202.917ZM200.446 202V194.551C200.446 194.176 200.534 193.864 200.71 193.614C200.886 193.364 201.115 193.176 201.396 193.051C201.677 192.926 201.974 192.864 202.287 192.864C202.534 192.864 202.735 192.884 202.892 192.923C203.048 192.963 203.164 193 203.241 193.034L202.951 193.903C202.9 193.886 202.829 193.865 202.738 193.839C202.65 193.814 202.534 193.801 202.389 193.801C202.056 193.801 201.816 193.885 201.669 194.053C201.524 194.22 201.451 194.466 201.451 194.79V202H200.446ZM206.716 202.136C206.125 202.136 205.607 201.996 205.161 201.714C204.718 201.433 204.371 201.04 204.121 200.534C203.874 200.028 203.75 199.437 203.75 198.761C203.75 198.08 203.874 197.484 204.121 196.976C204.371 196.467 204.718 196.072 205.161 195.791C205.607 195.51 206.125 195.369 206.716 195.369C207.307 195.369 207.824 195.51 208.267 195.791C208.713 196.072 209.06 196.467 209.307 196.976C209.557 197.484 209.682 198.08 209.682 198.761C209.682 199.437 209.557 200.028 209.307 200.534C209.06 201.04 208.713 201.433 208.267 201.714C207.824 201.996 207.307 202.136 206.716 202.136ZM206.716 201.233C207.165 201.233 207.534 201.118 207.824 200.888C208.114 200.658 208.328 200.355 208.468 199.98C208.607 199.605 208.676 199.199 208.676 198.761C208.676 198.324 208.607 197.916 208.468 197.538C208.328 197.161 208.114 196.855 207.824 196.622C207.534 196.389 207.165 196.273 206.716 196.273C206.267 196.273 205.898 196.389 205.608 196.622C205.319 196.855 205.104 197.161 204.965 197.538C204.826 197.916 204.756 198.324 204.756 198.761C204.756 199.199 204.826 199.605 204.965 199.98C205.104 200.355 205.319 200.658 205.608 200.888C205.898 201.118 206.267 201.233 206.716 201.233ZM215.342 199.324V195.455H216.348V202H215.342V200.892H215.274C215.121 201.224 214.882 201.507 214.558 201.74C214.234 201.97 213.825 202.085 213.331 202.085C212.922 202.085 212.558 201.996 212.24 201.817C211.922 201.635 211.672 201.362 211.49 200.999C211.308 200.632 211.217 200.17 211.217 199.614V195.455H212.223V199.545C212.223 200.023 212.357 200.403 212.624 200.688C212.893 200.972 213.237 201.114 213.655 201.114C213.905 201.114 214.159 201.05 214.418 200.922C214.679 200.794 214.898 200.598 215.074 200.334C215.253 200.07 215.342 199.733 215.342 199.324ZM219.196 198.062V202H218.19V195.455H219.162V196.477H219.247C219.4 196.145 219.633 195.878 219.946 195.676C220.258 195.472 220.662 195.369 221.156 195.369C221.599 195.369 221.987 195.46 222.319 195.642C222.652 195.821 222.91 196.094 223.095 196.46C223.279 196.824 223.372 197.284 223.372 197.841V202H222.366V197.909C222.366 197.395 222.233 196.994 221.966 196.707C221.699 196.418 221.332 196.273 220.866 196.273C220.545 196.273 220.258 196.342 220.005 196.482C219.755 196.621 219.558 196.824 219.413 197.091C219.268 197.358 219.196 197.682 219.196 198.062ZM227.681 202.136C227.136 202.136 226.654 201.999 226.237 201.723C225.819 201.445 225.492 201.053 225.256 200.547C225.021 200.038 224.903 199.438 224.903 198.744C224.903 198.057 225.021 197.46 225.256 196.955C225.492 196.449 225.82 196.058 226.241 195.783C226.661 195.507 227.147 195.369 227.698 195.369C228.124 195.369 228.461 195.44 228.708 195.582C228.958 195.722 229.148 195.881 229.279 196.06C229.413 196.236 229.516 196.381 229.59 196.494H229.675V193.273H230.681V202H229.71V200.994H229.59C229.516 201.114 229.411 201.264 229.275 201.446C229.138 201.625 228.944 201.786 228.691 201.928C228.438 202.067 228.102 202.136 227.681 202.136ZM227.817 201.233C228.221 201.233 228.562 201.128 228.84 200.918C229.119 200.705 229.33 200.411 229.475 200.036C229.62 199.658 229.692 199.222 229.692 198.727C229.692 198.239 229.621 197.811 229.479 197.445C229.337 197.075 229.127 196.788 228.849 196.584C228.57 196.376 228.227 196.273 227.817 196.273C227.391 196.273 227.036 196.382 226.752 196.601C226.471 196.817 226.259 197.111 226.117 197.483C225.978 197.852 225.908 198.267 225.908 198.727C225.908 199.193 225.979 199.616 226.121 199.997C226.266 200.375 226.479 200.676 226.761 200.901C227.045 201.122 227.397 201.233 227.817 201.233Z" fill="black"/>
</svg>
