<svg width="1700" height="385" viewBox="0 0 1700 385" fill="none" xmlns="http://www.w3.org/2000/svg">
<path d="M58.4235 71.8002C58.4235 67.3289 54.6804 63.7036 50.0624 63.7036C45.4451 63.7036 41.7013 67.3289 41.7013 71.8002C41.7013 76.2722 45.4451 79.8972 50.0624 79.8972C54.6804 79.8972 58.4235 76.2722 58.4235 71.8002Z" fill="#7E7E7E"/>
<path fill-rule="evenodd" clip-rule="evenodd" d="M76.9713 56.4168C78.7369 49.4688 80.9563 36.5844 73.1323 32.2162C65.3449 27.867 55.211 36.2008 49.8599 41.2032C44.5243 36.2507 34.1058 27.9525 26.2885 32.3346C18.5041 36.6983 20.9046 49.3691 22.7094 56.3607C15.4479 58.3578 3 62.6596 3 71.4486C3 80.2126 15.435 84.8928 22.6535 86.8881C20.842 93.9183 18.5617 106.408 26.356 110.762C34.2026 115.143 44.5886 107.043 49.9894 101.986C55.3748 107.017 65.4114 115.171 73.2004 110.805C81.0137 106.425 78.9788 93.7132 77.1739 86.6811C84.1714 84.6814 96.633 80.1032 96.633 71.4486C96.633 62.7441 84.1183 58.4074 76.9713 56.4168ZM76.0843 82.9545C74.8992 79.3217 73.2996 75.4585 71.343 71.4679C73.2107 67.5714 74.7481 63.7581 75.9001 60.1487C81.1395 61.6197 92.6333 64.9816 92.6333 71.4486C92.6333 77.9763 81.6036 81.37 76.0843 82.9545ZM71.196 107.453C65.3845 110.71 56.7519 102.913 52.7747 99.2073C55.4132 96.4127 58.0499 93.164 60.6233 89.5564C65.1501 89.1677 69.4263 88.5318 73.3046 87.6636C74.5749 92.6378 77.0331 104.18 71.196 107.453ZM28.3546 107.406C22.5425 104.161 25.1991 93.0156 26.5317 87.837C30.3669 88.6586 34.6124 89.2497 39.1498 89.606C41.74 93.1359 44.4532 96.3806 47.1873 99.2222C43.8093 102.387 34.1938 110.666 28.3546 107.406ZM6.99966 71.4486C6.99966 64.8965 18.4247 61.5589 23.7835 60.0916C24.9554 63.7821 26.4924 67.6409 28.3472 71.543C26.4683 75.5031 24.9094 79.423 23.7267 83.1571C18.617 81.7406 6.99966 78.0047 6.99966 71.4486ZM28.2924 35.6868C34.1283 32.4157 43.1832 40.3823 47.0571 43.968C44.3371 46.7966 41.6489 50.0168 39.0808 53.5265C34.6773 53.9217 30.4618 54.5564 26.5864 55.4068C25.1325 49.7678 22.4629 38.9545 28.2924 35.6868ZM63.4847 57.7366C66.4722 58.1016 69.3346 58.5873 72.0222 59.1814C71.2154 61.6858 70.2097 64.3045 69.0253 66.9891C67.3084 63.8345 65.4654 60.7431 63.4847 57.7366ZM49.8611 46.736C51.706 48.6713 53.5537 50.8326 55.3714 53.1774C51.6845 53.0084 47.9916 53.0078 44.3046 53.1749C46.1239 50.8519 47.9875 48.6938 49.8611 46.736ZM30.642 66.9863C29.4772 64.3111 28.4806 61.6808 27.6667 59.1406C30.3383 58.5617 33.1873 58.0885 36.1554 57.7294C34.1692 60.7294 32.3293 63.8195 30.642 66.9863ZM36.2406 85.4442C33.1745 85.1128 30.2823 84.6636 27.6116 84.1007C28.4383 81.5159 29.4569 78.8289 30.6466 76.096C32.3571 79.2958 34.225 82.4158 36.2406 85.4442ZM49.9719 96.4348C48.0762 94.4539 46.1851 92.2628 44.3383 89.9062C48.0462 90.0471 51.7612 90.0474 55.4688 89.8871C53.6454 92.2868 51.8043 94.481 49.9719 96.4348ZM69.0634 75.957C70.3149 78.7194 71.3699 81.3918 72.2079 83.933C69.4928 84.533 66.5618 85.0162 63.4735 85.375C65.4688 82.3114 67.3411 79.1721 69.0634 75.957ZM58.3911 85.8444C52.7194 86.2369 47.0125 86.2325 41.339 85.8765C38.1152 81.3164 35.2453 76.5206 32.7681 71.5418C35.2335 66.5732 38.0824 61.7868 41.2909 57.2338C46.9685 56.8183 52.681 56.817 58.3586 57.2363C61.5396 61.789 64.3842 66.563 66.9067 71.4866C64.4142 76.4526 61.5502 81.2487 58.3911 85.8444ZM71.1345 35.5717C76.9719 38.8321 74.3736 50.4117 73.0983 55.447C69.2138 54.5789 64.9953 53.933 60.579 53.5315C58.0059 49.9839 55.3402 46.758 52.6642 43.966C56.5877 40.303 65.3536 32.3432 71.1345 35.5717Z" fill="#7E7E7E"/>
<g clip-path="url(#clip0_7_18)">
<path d="M1646.73 0.0269104C1646.51 0.0464578 1645.83 0.114874 1645.21 0.163743C1631.01 1.4441 1617.7 9.10671 1609.28 20.8841C1604.58 27.4325 1601.58 34.8605 1600.45 42.7284C1600.05 45.4748 1600 46.286 1600 50.0098C1600 53.7336 1600.05 54.5448 1600.45 57.2912C1603.17 76.0666 1616.53 91.8414 1634.65 97.6861C1637.9 98.7319 1641.32 99.4453 1645.21 99.8754C1646.73 100.042 1653.27 100.042 1654.79 99.8754C1661.51 99.1326 1667.19 97.471 1672.81 94.6073C1673.67 94.1675 1673.83 94.0502 1673.71 93.9525C1673.64 93.8939 1669.97 88.9777 1665.57 83.0352L1657.58 72.2353L1647.56 57.4085C1642.04 49.2572 1637.51 42.5915 1637.47 42.5915C1637.43 42.5818 1637.39 49.1692 1637.37 57.213C1637.34 71.297 1637.33 71.8639 1637.16 72.1962C1636.9 72.6751 1636.71 72.8706 1636.3 73.0856C1635.98 73.242 1635.71 73.2713 1634.23 73.2713H1632.54L1632.09 72.9878C1631.8 72.8021 1631.58 72.5578 1631.44 72.2744L1631.23 71.8345L1631.25 52.2382L1631.28 32.6321L1631.58 32.2509C1631.74 32.0457 1632.07 31.7818 1632.31 31.6547C1632.71 31.4592 1632.86 31.4397 1634.56 31.4397C1636.55 31.4397 1636.88 31.5179 1637.4 32.0848C1637.55 32.2411 1642.97 40.412 1649.46 50.2541C1655.95 60.0963 1664.83 73.5352 1669.19 80.1324L1677.11 92.1248L1677.51 91.8609C1681.06 89.5543 1684.81 86.2703 1687.78 82.8495C1694.11 75.5877 1698.18 66.7326 1699.55 57.2912C1699.95 54.5448 1700 53.7336 1700 50.0098C1700 46.286 1699.95 45.4748 1699.55 42.7284C1696.83 23.953 1683.47 8.17821 1665.35 2.33351C1662.15 1.2975 1658.75 0.584013 1654.94 0.153969C1654 0.0562316 1647.54 -0.0512795 1646.73 0.0269104ZM1667.19 30.2668C1667.66 30.5014 1668.04 30.951 1668.18 31.4201C1668.26 31.6743 1668.28 37.1085 1668.26 49.3549L1668.23 66.9281L1665.13 62.1781L1662.02 57.4281V44.6538C1662.02 36.395 1662.06 31.7525 1662.12 31.5277C1662.28 30.9803 1662.62 30.5503 1663.09 30.2962C1663.49 30.0909 1663.64 30.0714 1665.17 30.0714C1666.62 30.0714 1666.87 30.0909 1667.19 30.2668Z" fill="#7E7E7E"/>
</g>
<g clip-path="url(#clip1_7_18)">
<path d="M860 346H840C835.029 346 831 350.029 831 355V375C831 379.971 835.029 384 840 384H860C864.971 384 869 379.971 869 375V355C869 350.029 864.971 346 860 346Z" stroke="#7E7E7E" stroke-width="2"/>
<path d="M850 373H859" stroke="#7E7E7E" stroke-width="2" stroke-linecap="round" stroke-linejoin="round"/>
<path d="M854.5 356.5C854.898 356.102 855.437 355.879 856 355.879C856.279 355.879 856.554 355.934 856.812 356.04C857.069 356.147 857.303 356.303 857.5 356.5C857.697 356.697 857.853 356.931 857.96 357.188C858.067 357.446 858.121 357.722 858.121 358C858.121 358.279 858.067 358.555 857.96 358.812C857.853 359.069 857.697 359.303 857.5 359.5L845 372L841 373L842 369L854.5 356.5Z" stroke="#7E7E7E" stroke-width="2" stroke-linecap="round" stroke-linejoin="round"/>
</g>
<path d="M851 345C851 235.5 817 153.5 1146.5 153.5C1513.3 153.5 1659.5 166.5 1650 110.5" stroke="#7E7E7E"/>
<path d="M849.587 345C847.567 241.451 887.526 153.987 519.851 153.987C110.555 153.987 40.3793 176.858 50.9799 121" stroke="#7E7E7E"/>
<defs>
<clipPath id="clip0_7_18">
<rect width="100" height="100" fill="white" transform="translate(1600)"/>
</clipPath>
<clipPath id="clip1_7_18">
<rect width="40" height="40" fill="white" transform="translate(830 345)"/>
</clipPath>
</defs>
</svg>
