<svg width="252" height="251" viewBox="0 0 252 251" fill="none" xmlns="http://www.w3.org/2000/svg">
<rect x="1" y="1" width="250" height="249" rx="20" stroke="black" stroke-width="2"/>
<path d="M96 209L214 210" stroke="black" stroke-width="2" stroke-linecap="round" stroke-linejoin="round"/>
<path d="M168.986 43.2418C173.052 39.2452 178.567 37 184.318 37C187.165 37 189.984 37.5512 192.615 38.6222C195.246 39.6931 197.636 41.2629 199.649 43.2418C201.663 45.2206 203.26 47.5699 204.35 50.1554C205.439 52.741 206 55.5121 206 58.3107C206 61.1092 205.439 63.8804 204.35 66.4659C203.26 69.0515 201.663 71.4007 199.649 73.3796L71.8847 198.954L31 209L41.2212 168.816L168.986 43.2418Z" stroke="black" stroke-width="2" stroke-linecap="round" stroke-linejoin="round"/>
<path d="M105.42 197.636C105.42 198.557 105.254 199.352 104.922 200.023C104.589 200.693 104.134 201.21 103.554 201.574C102.974 201.938 102.313 202.119 101.568 202.119C100.824 202.119 100.162 201.938 99.5824 201.574C99.0028 201.21 98.5469 200.693 98.2145 200.023C97.8821 199.352 97.7159 198.557 97.7159 197.636C97.7159 196.716 97.8821 195.92 98.2145 195.25C98.5469 194.58 99.0028 194.062 99.5824 193.699C100.162 193.335 100.824 193.153 101.568 193.153C102.313 193.153 102.974 193.335 103.554 193.699C104.134 194.062 104.589 194.58 104.922 195.25C105.254 195.92 105.42 196.716 105.42 197.636ZM104.398 197.636C104.398 196.881 104.271 196.243 104.018 195.723C103.768 195.203 103.429 194.81 103 194.543C102.574 194.276 102.097 194.142 101.568 194.142C101.04 194.142 100.561 194.276 100.132 194.543C99.706 194.81 99.3665 195.203 99.1136 195.723C98.8636 196.243 98.7386 196.881 98.7386 197.636C98.7386 198.392 98.8636 199.03 99.1136 199.55C99.3665 200.07 99.706 200.463 100.132 200.73C100.561 200.997 101.04 201.131 101.568 201.131C102.097 201.131 102.574 200.997 103 200.73C103.429 200.463 103.768 200.07 104.018 199.55C104.271 199.03 104.398 198.392 104.398 197.636ZM109.72 202.136C109.129 202.136 108.611 201.996 108.165 201.714C107.722 201.433 107.375 201.04 107.125 200.534C106.878 200.028 106.754 199.437 106.754 198.761C106.754 198.08 106.878 197.484 107.125 196.976C107.375 196.467 107.722 196.072 108.165 195.791C108.611 195.51 109.129 195.369 109.72 195.369C110.311 195.369 110.828 195.51 111.271 195.791C111.717 196.072 112.064 196.467 112.311 196.976C112.561 197.484 112.686 198.08 112.686 198.761C112.686 199.437 112.561 200.028 112.311 200.534C112.064 201.04 111.717 201.433 111.271 201.714C110.828 201.996 110.311 202.136 109.72 202.136ZM109.72 201.233C110.169 201.233 110.538 201.118 110.828 200.888C111.118 200.658 111.332 200.355 111.472 199.98C111.611 199.605 111.68 199.199 111.68 198.761C111.68 198.324 111.611 197.916 111.472 197.538C111.332 197.161 111.118 196.855 110.828 196.622C110.538 196.389 110.169 196.273 109.72 196.273C109.271 196.273 108.902 196.389 108.612 196.622C108.322 196.855 108.108 197.161 107.969 197.538C107.83 197.916 107.76 198.324 107.76 198.761C107.76 199.199 107.83 199.605 107.969 199.98C108.108 200.355 108.322 200.658 108.612 200.888C108.902 201.118 109.271 201.233 109.72 201.233ZM114.221 204.455V195.455H115.193V196.494H115.312C115.386 196.381 115.488 196.236 115.619 196.06C115.752 195.881 115.943 195.722 116.19 195.582C116.44 195.44 116.778 195.369 117.204 195.369C117.755 195.369 118.241 195.507 118.662 195.783C119.082 196.058 119.41 196.449 119.646 196.955C119.882 197.46 120 198.057 120 198.744C120 199.438 119.882 200.038 119.646 200.547C119.41 201.053 119.083 201.445 118.666 201.723C118.248 201.999 117.767 202.136 117.221 202.136C116.801 202.136 116.464 202.067 116.211 201.928C115.958 201.786 115.764 201.625 115.627 201.446C115.491 201.264 115.386 201.114 115.312 200.994H115.227V204.455H114.221ZM115.21 198.727C115.21 199.222 115.282 199.658 115.427 200.036C115.572 200.411 115.784 200.705 116.062 200.918C116.341 201.128 116.681 201.233 117.085 201.233C117.505 201.233 117.856 201.122 118.137 200.901C118.422 200.676 118.635 200.375 118.777 199.997C118.922 199.616 118.994 199.193 118.994 198.727C118.994 198.267 118.923 197.852 118.781 197.483C118.642 197.111 118.43 196.817 118.146 196.601C117.865 196.382 117.511 196.273 117.085 196.273C116.676 196.273 116.332 196.376 116.054 196.584C115.775 196.788 115.565 197.075 115.423 197.445C115.281 197.811 115.21 198.239 115.21 198.727ZM126.17 196.92L125.267 197.176C125.21 197.026 125.126 196.879 125.015 196.737C124.907 196.592 124.76 196.473 124.572 196.379C124.385 196.286 124.145 196.239 123.852 196.239C123.451 196.239 123.118 196.331 122.85 196.516C122.586 196.697 122.454 196.929 122.454 197.21C122.454 197.46 122.545 197.658 122.727 197.803C122.909 197.947 123.193 198.068 123.579 198.165L124.551 198.403C125.136 198.545 125.572 198.763 125.859 199.055C126.146 199.345 126.289 199.719 126.289 200.176C126.289 200.551 126.181 200.886 125.966 201.182C125.752 201.477 125.454 201.71 125.071 201.881C124.687 202.051 124.241 202.136 123.733 202.136C123.065 202.136 122.512 201.991 122.075 201.702C121.637 201.412 121.36 200.989 121.244 200.432L122.199 200.193C122.289 200.545 122.461 200.81 122.714 200.986C122.97 201.162 123.304 201.25 123.716 201.25C124.184 201.25 124.556 201.151 124.832 200.952C125.11 200.75 125.25 200.509 125.25 200.227C125.25 200 125.17 199.81 125.011 199.656C124.852 199.5 124.608 199.384 124.278 199.307L123.187 199.051C122.588 198.909 122.147 198.689 121.866 198.391C121.588 198.089 121.449 197.713 121.449 197.261C121.449 196.892 121.552 196.565 121.76 196.281C121.97 195.997 122.255 195.774 122.616 195.612C122.98 195.45 123.392 195.369 123.852 195.369C124.5 195.369 125.008 195.511 125.377 195.795C125.75 196.08 126.014 196.455 126.17 196.92ZM135.303 199.324V195.455H136.309V202H135.303V200.892H135.235C135.082 201.224 134.843 201.507 134.519 201.74C134.195 201.97 133.786 202.085 133.292 202.085C132.883 202.085 132.519 201.996 132.201 201.817C131.883 201.635 131.633 201.362 131.451 200.999C131.269 200.632 131.178 200.17 131.178 199.614V195.455H132.184V199.545C132.184 200.023 132.317 200.403 132.585 200.688C132.854 200.972 133.198 201.114 133.616 201.114C133.866 201.114 134.12 201.05 134.379 200.922C134.64 200.794 134.859 200.598 135.035 200.334C135.214 200.07 135.303 199.733 135.303 199.324ZM142.787 196.92L141.884 197.176C141.827 197.026 141.743 196.879 141.632 196.737C141.525 196.592 141.377 196.473 141.189 196.379C141.002 196.286 140.762 196.239 140.469 196.239C140.069 196.239 139.735 196.331 139.468 196.516C139.203 196.697 139.071 196.929 139.071 197.21C139.071 197.46 139.162 197.658 139.344 197.803C139.526 197.947 139.81 198.068 140.196 198.165L141.168 198.403C141.753 198.545 142.189 198.763 142.476 199.055C142.763 199.345 142.907 199.719 142.907 200.176C142.907 200.551 142.799 200.886 142.583 201.182C142.37 201.477 142.071 201.71 141.688 201.881C141.304 202.051 140.858 202.136 140.35 202.136C139.682 202.136 139.13 201.991 138.692 201.702C138.255 201.412 137.978 200.989 137.861 200.432L138.816 200.193C138.907 200.545 139.078 200.81 139.331 200.986C139.587 201.162 139.921 201.25 140.333 201.25C140.801 201.25 141.174 201.151 141.449 200.952C141.728 200.75 141.867 200.509 141.867 200.227C141.867 200 141.787 199.81 141.628 199.656C141.469 199.5 141.225 199.384 140.895 199.307L139.804 199.051C139.205 198.909 138.765 198.689 138.483 198.391C138.205 198.089 138.066 197.713 138.066 197.261C138.066 196.892 138.169 196.565 138.377 196.281C138.587 195.997 138.873 195.774 139.233 195.612C139.597 195.45 140.009 195.369 140.469 195.369C141.117 195.369 141.625 195.511 141.995 195.795C142.367 196.08 142.631 196.455 142.787 196.92ZM147.165 202.136C146.534 202.136 145.99 201.997 145.533 201.719C145.078 201.438 144.727 201.045 144.48 200.543C144.236 200.037 144.114 199.449 144.114 198.778C144.114 198.108 144.236 197.517 144.48 197.006C144.727 196.491 145.071 196.091 145.511 195.804C145.955 195.514 146.472 195.369 147.062 195.369C147.403 195.369 147.74 195.426 148.072 195.54C148.405 195.653 148.707 195.838 148.98 196.094C149.253 196.347 149.47 196.682 149.632 197.099C149.794 197.517 149.875 198.031 149.875 198.642V199.068H144.83V198.199H148.852C148.852 197.83 148.778 197.5 148.631 197.21C148.486 196.92 148.278 196.692 148.009 196.524C147.741 196.357 147.426 196.273 147.062 196.273C146.662 196.273 146.315 196.372 146.023 196.571C145.733 196.767 145.51 197.023 145.354 197.338C145.197 197.653 145.119 197.991 145.119 198.352V198.932C145.119 199.426 145.205 199.845 145.375 200.189C145.548 200.53 145.788 200.79 146.095 200.969C146.402 201.145 146.759 201.233 147.165 201.233C147.429 201.233 147.668 201.196 147.881 201.122C148.097 201.045 148.283 200.932 148.439 200.781C148.595 200.628 148.716 200.437 148.801 200.21L149.773 200.483C149.67 200.812 149.499 201.102 149.257 201.352C149.016 201.599 148.717 201.793 148.362 201.932C148.007 202.068 147.608 202.136 147.165 202.136ZM151.405 202V195.455H152.376V196.443H152.445C152.564 196.119 152.78 195.857 153.092 195.655C153.405 195.453 153.757 195.352 154.149 195.352C154.223 195.352 154.315 195.354 154.426 195.357C154.537 195.359 154.621 195.364 154.678 195.369V196.392C154.643 196.384 154.565 196.371 154.443 196.354C154.324 196.334 154.197 196.324 154.064 196.324C153.746 196.324 153.462 196.391 153.212 196.524C152.964 196.655 152.768 196.837 152.624 197.07C152.482 197.3 152.411 197.562 152.411 197.858V202H151.405ZM160.25 198.062V202H159.245V195.455H160.216V196.477H160.301C160.455 196.145 160.688 195.878 161 195.676C161.313 195.472 161.716 195.369 162.211 195.369C162.654 195.369 163.042 195.46 163.374 195.642C163.706 195.821 163.965 196.094 164.15 196.46C164.334 196.824 164.426 197.284 164.426 197.841V202H163.421V197.909C163.421 197.395 163.287 196.994 163.02 196.707C162.753 196.418 162.387 196.273 161.921 196.273C161.6 196.273 161.313 196.342 161.06 196.482C160.81 196.621 160.613 196.824 160.468 197.091C160.323 197.358 160.25 197.682 160.25 198.062ZM168.923 202.136C168.332 202.136 167.814 201.996 167.368 201.714C166.925 201.433 166.578 201.04 166.328 200.534C166.081 200.028 165.957 199.437 165.957 198.761C165.957 198.08 166.081 197.484 166.328 196.976C166.578 196.467 166.925 196.072 167.368 195.791C167.814 195.51 168.332 195.369 168.923 195.369C169.514 195.369 170.031 195.51 170.474 195.791C170.92 196.072 171.267 196.467 171.514 196.976C171.764 197.484 171.889 198.08 171.889 198.761C171.889 199.437 171.764 200.028 171.514 200.534C171.267 201.04 170.92 201.433 170.474 201.714C170.031 201.996 169.514 202.136 168.923 202.136ZM168.923 201.233C169.372 201.233 169.741 201.118 170.031 200.888C170.321 200.658 170.536 200.355 170.675 199.98C170.814 199.605 170.884 199.199 170.884 198.761C170.884 198.324 170.814 197.916 170.675 197.538C170.536 197.161 170.321 196.855 170.031 196.622C169.741 196.389 169.372 196.273 168.923 196.273C168.474 196.273 168.105 196.389 167.815 196.622C167.526 196.855 167.311 197.161 167.172 197.538C167.033 197.916 166.963 198.324 166.963 198.761C166.963 199.199 167.033 199.605 167.172 199.98C167.311 200.355 167.526 200.658 167.815 200.888C168.105 201.118 168.474 201.233 168.923 201.233ZM176.271 195.455V196.307H172.879V195.455H176.271ZM173.868 193.886H174.873V200.125C174.873 200.409 174.914 200.622 174.997 200.764C175.082 200.903 175.19 200.997 175.321 201.045C175.454 201.091 175.595 201.114 175.743 201.114C175.853 201.114 175.944 201.108 176.015 201.097C176.086 201.082 176.143 201.071 176.186 201.062L176.39 201.966C176.322 201.991 176.227 202.017 176.105 202.043C175.983 202.071 175.828 202.085 175.64 202.085C175.356 202.085 175.078 202.024 174.805 201.902C174.535 201.78 174.311 201.594 174.132 201.344C173.956 201.094 173.868 200.778 173.868 200.398V193.886ZM184.074 195.455V196.307H180.545V195.455H184.074ZM181.602 202V194.551C181.602 194.176 181.69 193.864 181.866 193.614C182.042 193.364 182.271 193.176 182.552 193.051C182.833 192.926 183.13 192.864 183.443 192.864C183.69 192.864 183.892 192.884 184.048 192.923C184.204 192.963 184.321 193 184.397 193.034L184.108 193.903C184.056 193.886 183.985 193.865 183.895 193.839C183.806 193.814 183.69 193.801 183.545 193.801C183.213 193.801 182.973 193.885 182.825 194.053C182.68 194.22 182.608 194.466 182.608 194.79V202H181.602ZM187.873 202.136C187.282 202.136 186.763 201.996 186.317 201.714C185.874 201.433 185.527 201.04 185.277 200.534C185.03 200.028 184.907 199.437 184.907 198.761C184.907 198.08 185.03 197.484 185.277 196.976C185.527 196.467 185.874 196.072 186.317 195.791C186.763 195.51 187.282 195.369 187.873 195.369C188.463 195.369 188.98 195.51 189.424 195.791C189.87 196.072 190.216 196.467 190.463 196.976C190.713 197.484 190.838 198.08 190.838 198.761C190.838 199.437 190.713 200.028 190.463 200.534C190.216 201.04 189.87 201.433 189.424 201.714C188.98 201.996 188.463 202.136 187.873 202.136ZM187.873 201.233C188.321 201.233 188.691 201.118 188.98 200.888C189.27 200.658 189.485 200.355 189.624 199.98C189.763 199.605 189.833 199.199 189.833 198.761C189.833 198.324 189.763 197.916 189.624 197.538C189.485 197.161 189.27 196.855 188.98 196.622C188.691 196.389 188.321 196.273 187.873 196.273C187.424 196.273 187.054 196.389 186.765 196.622C186.475 196.855 186.26 197.161 186.121 197.538C185.982 197.916 185.912 198.324 185.912 198.761C185.912 199.199 185.982 199.605 186.121 199.98C186.26 200.355 186.475 200.658 186.765 200.888C187.054 201.118 187.424 201.233 187.873 201.233ZM196.499 199.324V195.455H197.504V202H196.499V200.892H196.43C196.277 201.224 196.038 201.507 195.714 201.74C195.391 201.97 194.982 202.085 194.487 202.085C194.078 202.085 193.714 201.996 193.396 201.817C193.078 201.635 192.828 201.362 192.646 200.999C192.464 200.632 192.374 200.17 192.374 199.614V195.455H193.379V199.545C193.379 200.023 193.513 200.403 193.78 200.688C194.05 200.972 194.393 201.114 194.811 201.114C195.061 201.114 195.315 201.05 195.574 200.922C195.835 200.794 196.054 200.598 196.23 200.334C196.409 200.07 196.499 199.733 196.499 199.324ZM200.352 198.062V202H199.346V195.455H200.318V196.477H200.403C200.556 196.145 200.789 195.878 201.102 195.676C201.414 195.472 201.818 195.369 202.312 195.369C202.755 195.369 203.143 195.46 203.475 195.642C203.808 195.821 204.066 196.094 204.251 196.46C204.436 196.824 204.528 197.284 204.528 197.841V202H203.522V197.909C203.522 197.395 203.389 196.994 203.122 196.707C202.855 196.418 202.488 196.273 202.022 196.273C201.701 196.273 201.414 196.342 201.162 196.482C200.912 196.621 200.714 196.824 200.569 197.091C200.424 197.358 200.352 197.682 200.352 198.062ZM208.837 202.136C208.292 202.136 207.81 201.999 207.393 201.723C206.975 201.445 206.648 201.053 206.413 200.547C206.177 200.038 206.059 199.438 206.059 198.744C206.059 198.057 206.177 197.46 206.413 196.955C206.648 196.449 206.977 196.058 207.397 195.783C207.817 195.507 208.303 195.369 208.854 195.369C209.281 195.369 209.617 195.44 209.864 195.582C210.114 195.722 210.305 195.881 210.435 196.06C210.569 196.236 210.673 196.381 210.746 196.494H210.832V193.273H211.837V202H210.866V200.994H210.746C210.673 201.114 210.567 201.264 210.431 201.446C210.295 201.625 210.1 201.786 209.847 201.928C209.594 202.067 209.258 202.136 208.837 202.136ZM208.974 201.233C209.377 201.233 209.718 201.128 209.996 200.918C210.275 200.705 210.487 200.411 210.631 200.036C210.776 199.658 210.849 199.222 210.849 198.727C210.849 198.239 210.778 197.811 210.636 197.445C210.494 197.075 210.283 196.788 210.005 196.584C209.727 196.376 209.383 196.273 208.974 196.273C208.548 196.273 208.192 196.382 207.908 196.601C207.627 196.817 207.415 197.111 207.273 197.483C207.134 197.852 207.065 198.267 207.065 198.727C207.065 199.193 207.136 199.616 207.278 199.997C207.423 200.375 207.636 200.676 207.917 200.901C208.201 201.122 208.553 201.233 208.974 201.233Z" fill="black"/>
</svg>
