<svg width="258" height="257" viewBox="0 0 258 257" fill="none" xmlns="http://www.w3.org/2000/svg">
<g filter="url(#filter0_d_125_24)">
<rect x="5" y="1" width="248" height="247" rx="19" stroke="white" stroke-width="2"/>
<path d="M99 208L217 209" stroke="white" stroke-width="2" stroke-linecap="round" stroke-linejoin="round"/>
<path d="M171.986 42.2418C176.052 38.2452 181.567 36 187.318 36C190.165 36 192.984 36.5512 195.615 37.6222C198.246 38.6931 200.636 40.2629 202.649 42.2418C204.663 44.2206 206.26 46.5699 207.35 49.1554C208.439 51.741 209 54.5121 209 57.3107C209 60.1092 208.439 62.8804 207.35 65.4659C206.26 68.0515 204.663 70.4007 202.649 72.3796L74.8847 197.954L34 208L44.2212 167.816L171.986 42.2418Z" stroke="white" stroke-width="2" stroke-linecap="round" stroke-linejoin="round"/>
<path d="M108.42 196.636C108.42 197.557 108.254 198.352 107.922 199.023C107.589 199.693 107.134 200.21 106.554 200.574C105.974 200.938 105.313 201.119 104.568 201.119C103.824 201.119 103.162 200.938 102.582 200.574C102.003 200.21 101.547 199.693 101.214 199.023C100.882 198.352 100.716 197.557 100.716 196.636C100.716 195.716 100.882 194.92 101.214 194.25C101.547 193.58 102.003 193.062 102.582 192.699C103.162 192.335 103.824 192.153 104.568 192.153C105.313 192.153 105.974 192.335 106.554 192.699C107.134 193.062 107.589 193.58 107.922 194.25C108.254 194.92 108.42 195.716 108.42 196.636ZM107.398 196.636C107.398 195.881 107.271 195.243 107.018 194.723C106.768 194.203 106.429 193.81 106 193.543C105.574 193.276 105.097 193.142 104.568 193.142C104.04 193.142 103.561 193.276 103.132 193.543C102.706 193.81 102.366 194.203 102.114 194.723C101.864 195.243 101.739 195.881 101.739 196.636C101.739 197.392 101.864 198.03 102.114 198.55C102.366 199.07 102.706 199.463 103.132 199.73C103.561 199.997 104.04 200.131 104.568 200.131C105.097 200.131 105.574 199.997 106 199.73C106.429 199.463 106.768 199.07 107.018 198.55C107.271 198.03 107.398 197.392 107.398 196.636ZM112.72 201.136C112.129 201.136 111.611 200.996 111.165 200.714C110.722 200.433 110.375 200.04 110.125 199.534C109.878 199.028 109.754 198.437 109.754 197.761C109.754 197.08 109.878 196.484 110.125 195.976C110.375 195.467 110.722 195.072 111.165 194.791C111.611 194.51 112.129 194.369 112.72 194.369C113.311 194.369 113.828 194.51 114.271 194.791C114.717 195.072 115.064 195.467 115.311 195.976C115.561 196.484 115.686 197.08 115.686 197.761C115.686 198.437 115.561 199.028 115.311 199.534C115.064 200.04 114.717 200.433 114.271 200.714C113.828 200.996 113.311 201.136 112.72 201.136ZM112.72 200.233C113.169 200.233 113.538 200.118 113.828 199.888C114.118 199.658 114.332 199.355 114.472 198.98C114.611 198.605 114.68 198.199 114.68 197.761C114.68 197.324 114.611 196.916 114.472 196.538C114.332 196.161 114.118 195.855 113.828 195.622C113.538 195.389 113.169 195.273 112.72 195.273C112.271 195.273 111.902 195.389 111.612 195.622C111.322 195.855 111.108 196.161 110.969 196.538C110.83 196.916 110.76 197.324 110.76 197.761C110.76 198.199 110.83 198.605 110.969 198.98C111.108 199.355 111.322 199.658 111.612 199.888C111.902 200.118 112.271 200.233 112.72 200.233ZM117.221 203.455V194.455H118.193V195.494H118.312C118.386 195.381 118.488 195.236 118.619 195.06C118.752 194.881 118.943 194.722 119.19 194.582C119.44 194.44 119.778 194.369 120.204 194.369C120.755 194.369 121.241 194.507 121.662 194.783C122.082 195.058 122.41 195.449 122.646 195.955C122.882 196.46 123 197.057 123 197.744C123 198.438 122.882 199.038 122.646 199.547C122.41 200.053 122.083 200.445 121.666 200.723C121.248 200.999 120.767 201.136 120.221 201.136C119.801 201.136 119.464 201.067 119.211 200.928C118.958 200.786 118.764 200.625 118.627 200.446C118.491 200.264 118.386 200.114 118.312 199.994H118.227V203.455H117.221ZM118.21 197.727C118.21 198.222 118.282 198.658 118.427 199.036C118.572 199.411 118.784 199.705 119.062 199.918C119.341 200.128 119.681 200.233 120.085 200.233C120.505 200.233 120.856 200.122 121.137 199.901C121.422 199.676 121.635 199.375 121.777 198.997C121.922 198.616 121.994 198.193 121.994 197.727C121.994 197.267 121.923 196.852 121.781 196.483C121.642 196.111 121.43 195.817 121.146 195.601C120.865 195.382 120.511 195.273 120.085 195.273C119.676 195.273 119.332 195.376 119.054 195.584C118.775 195.788 118.565 196.075 118.423 196.445C118.281 196.811 118.21 197.239 118.21 197.727ZM129.17 195.92L128.267 196.176C128.21 196.026 128.126 195.879 128.015 195.737C127.907 195.592 127.76 195.473 127.572 195.379C127.385 195.286 127.145 195.239 126.852 195.239C126.451 195.239 126.118 195.331 125.85 195.516C125.586 195.697 125.454 195.929 125.454 196.21C125.454 196.46 125.545 196.658 125.727 196.803C125.909 196.947 126.193 197.068 126.579 197.165L127.551 197.403C128.136 197.545 128.572 197.763 128.859 198.055C129.146 198.345 129.289 198.719 129.289 199.176C129.289 199.551 129.181 199.886 128.966 200.182C128.752 200.477 128.454 200.71 128.071 200.881C127.687 201.051 127.241 201.136 126.733 201.136C126.065 201.136 125.512 200.991 125.075 200.702C124.637 200.412 124.36 199.989 124.244 199.432L125.199 199.193C125.289 199.545 125.461 199.81 125.714 199.986C125.97 200.162 126.304 200.25 126.716 200.25C127.184 200.25 127.556 200.151 127.832 199.952C128.11 199.75 128.25 199.509 128.25 199.227C128.25 199 128.17 198.81 128.011 198.656C127.852 198.5 127.608 198.384 127.278 198.307L126.187 198.051C125.588 197.909 125.147 197.689 124.866 197.391C124.588 197.089 124.449 196.713 124.449 196.261C124.449 195.892 124.552 195.565 124.76 195.281C124.97 194.997 125.255 194.774 125.616 194.612C125.98 194.45 126.392 194.369 126.852 194.369C127.5 194.369 128.008 194.511 128.377 194.795C128.75 195.08 129.014 195.455 129.17 195.92ZM138.303 198.324V194.455H139.309V201H138.303V199.892H138.235C138.082 200.224 137.843 200.507 137.519 200.74C137.195 200.97 136.786 201.085 136.292 201.085C135.883 201.085 135.519 200.996 135.201 200.817C134.883 200.635 134.633 200.362 134.451 199.999C134.269 199.632 134.178 199.17 134.178 198.614V194.455H135.184V198.545C135.184 199.023 135.317 199.403 135.585 199.688C135.854 199.972 136.198 200.114 136.616 200.114C136.866 200.114 137.12 200.05 137.379 199.922C137.64 199.794 137.859 199.598 138.035 199.334C138.214 199.07 138.303 198.733 138.303 198.324ZM145.787 195.92L144.884 196.176C144.827 196.026 144.743 195.879 144.632 195.737C144.525 195.592 144.377 195.473 144.189 195.379C144.002 195.286 143.762 195.239 143.469 195.239C143.069 195.239 142.735 195.331 142.468 195.516C142.203 195.697 142.071 195.929 142.071 196.21C142.071 196.46 142.162 196.658 142.344 196.803C142.526 196.947 142.81 197.068 143.196 197.165L144.168 197.403C144.753 197.545 145.189 197.763 145.476 198.055C145.763 198.345 145.907 198.719 145.907 199.176C145.907 199.551 145.799 199.886 145.583 200.182C145.37 200.477 145.071 200.71 144.688 200.881C144.304 201.051 143.858 201.136 143.35 201.136C142.682 201.136 142.13 200.991 141.692 200.702C141.255 200.412 140.978 199.989 140.861 199.432L141.816 199.193C141.907 199.545 142.078 199.81 142.331 199.986C142.587 200.162 142.921 200.25 143.333 200.25C143.801 200.25 144.174 200.151 144.449 199.952C144.728 199.75 144.867 199.509 144.867 199.227C144.867 199 144.787 198.81 144.628 198.656C144.469 198.5 144.225 198.384 143.895 198.307L142.804 198.051C142.205 197.909 141.765 197.689 141.483 197.391C141.205 197.089 141.066 196.713 141.066 196.261C141.066 195.892 141.169 195.565 141.377 195.281C141.587 194.997 141.873 194.774 142.233 194.612C142.597 194.45 143.009 194.369 143.469 194.369C144.117 194.369 144.625 194.511 144.995 194.795C145.367 195.08 145.631 195.455 145.787 195.92ZM150.165 201.136C149.534 201.136 148.99 200.997 148.533 200.719C148.078 200.438 147.727 200.045 147.48 199.543C147.236 199.037 147.114 198.449 147.114 197.778C147.114 197.108 147.236 196.517 147.48 196.006C147.727 195.491 148.071 195.091 148.511 194.804C148.955 194.514 149.472 194.369 150.062 194.369C150.403 194.369 150.74 194.426 151.072 194.54C151.405 194.653 151.707 194.838 151.98 195.094C152.253 195.347 152.47 195.682 152.632 196.099C152.794 196.517 152.875 197.031 152.875 197.642V198.068H147.83V197.199H151.852C151.852 196.83 151.778 196.5 151.631 196.21C151.486 195.92 151.278 195.692 151.009 195.524C150.741 195.357 150.426 195.273 150.062 195.273C149.662 195.273 149.315 195.372 149.023 195.571C148.733 195.767 148.51 196.023 148.354 196.338C148.197 196.653 148.119 196.991 148.119 197.352V197.932C148.119 198.426 148.205 198.845 148.375 199.189C148.548 199.53 148.788 199.79 149.095 199.969C149.402 200.145 149.759 200.233 150.165 200.233C150.429 200.233 150.668 200.196 150.881 200.122C151.097 200.045 151.283 199.932 151.439 199.781C151.595 199.628 151.716 199.437 151.801 199.21L152.773 199.483C152.67 199.812 152.499 200.102 152.257 200.352C152.016 200.599 151.717 200.793 151.362 200.932C151.007 201.068 150.608 201.136 150.165 201.136ZM154.405 201V194.455H155.376V195.443H155.445C155.564 195.119 155.78 194.857 156.092 194.655C156.405 194.453 156.757 194.352 157.149 194.352C157.223 194.352 157.315 194.354 157.426 194.357C157.537 194.359 157.621 194.364 157.678 194.369V195.392C157.643 195.384 157.565 195.371 157.443 195.354C157.324 195.334 157.197 195.324 157.064 195.324C156.746 195.324 156.462 195.391 156.212 195.524C155.964 195.655 155.768 195.837 155.624 196.07C155.482 196.3 155.411 196.562 155.411 196.858V201H154.405ZM163.25 197.062V201H162.245V194.455H163.216V195.477H163.301C163.455 195.145 163.688 194.878 164 194.676C164.313 194.472 164.716 194.369 165.211 194.369C165.654 194.369 166.042 194.46 166.374 194.642C166.706 194.821 166.965 195.094 167.15 195.46C167.334 195.824 167.426 196.284 167.426 196.841V201H166.421V196.909C166.421 196.395 166.287 195.994 166.02 195.707C165.753 195.418 165.387 195.273 164.921 195.273C164.6 195.273 164.313 195.342 164.06 195.482C163.81 195.621 163.613 195.824 163.468 196.091C163.323 196.358 163.25 196.682 163.25 197.062ZM171.923 201.136C171.332 201.136 170.814 200.996 170.368 200.714C169.925 200.433 169.578 200.04 169.328 199.534C169.081 199.028 168.957 198.437 168.957 197.761C168.957 197.08 169.081 196.484 169.328 195.976C169.578 195.467 169.925 195.072 170.368 194.791C170.814 194.51 171.332 194.369 171.923 194.369C172.514 194.369 173.031 194.51 173.474 194.791C173.92 195.072 174.267 195.467 174.514 195.976C174.764 196.484 174.889 197.08 174.889 197.761C174.889 198.437 174.764 199.028 174.514 199.534C174.267 200.04 173.92 200.433 173.474 200.714C173.031 200.996 172.514 201.136 171.923 201.136ZM171.923 200.233C172.372 200.233 172.741 200.118 173.031 199.888C173.321 199.658 173.536 199.355 173.675 198.98C173.814 198.605 173.884 198.199 173.884 197.761C173.884 197.324 173.814 196.916 173.675 196.538C173.536 196.161 173.321 195.855 173.031 195.622C172.741 195.389 172.372 195.273 171.923 195.273C171.474 195.273 171.105 195.389 170.815 195.622C170.526 195.855 170.311 196.161 170.172 196.538C170.033 196.916 169.963 197.324 169.963 197.761C169.963 198.199 170.033 198.605 170.172 198.98C170.311 199.355 170.526 199.658 170.815 199.888C171.105 200.118 171.474 200.233 171.923 200.233ZM179.271 194.455V195.307H175.879V194.455H179.271ZM176.868 192.886H177.873V199.125C177.873 199.409 177.914 199.622 177.997 199.764C178.082 199.903 178.19 199.997 178.321 200.045C178.454 200.091 178.595 200.114 178.743 200.114C178.853 200.114 178.944 200.108 179.015 200.097C179.086 200.082 179.143 200.071 179.186 200.062L179.39 200.966C179.322 200.991 179.227 201.017 179.105 201.043C178.983 201.071 178.828 201.085 178.64 201.085C178.356 201.085 178.078 201.024 177.805 200.902C177.535 200.78 177.311 200.594 177.132 200.344C176.956 200.094 176.868 199.778 176.868 199.398V192.886ZM187.074 194.455V195.307H183.545V194.455H187.074ZM184.602 201V193.551C184.602 193.176 184.69 192.864 184.866 192.614C185.042 192.364 185.271 192.176 185.552 192.051C185.833 191.926 186.13 191.864 186.443 191.864C186.69 191.864 186.892 191.884 187.048 191.923C187.204 191.963 187.321 192 187.397 192.034L187.108 192.903C187.056 192.886 186.985 192.865 186.895 192.839C186.806 192.814 186.69 192.801 186.545 192.801C186.213 192.801 185.973 192.885 185.825 193.053C185.68 193.22 185.608 193.466 185.608 193.79V201H184.602ZM190.873 201.136C190.282 201.136 189.763 200.996 189.317 200.714C188.874 200.433 188.527 200.04 188.277 199.534C188.03 199.028 187.907 198.437 187.907 197.761C187.907 197.08 188.03 196.484 188.277 195.976C188.527 195.467 188.874 195.072 189.317 194.791C189.763 194.51 190.282 194.369 190.873 194.369C191.463 194.369 191.98 194.51 192.424 194.791C192.87 195.072 193.216 195.467 193.463 195.976C193.713 196.484 193.838 197.08 193.838 197.761C193.838 198.437 193.713 199.028 193.463 199.534C193.216 200.04 192.87 200.433 192.424 200.714C191.98 200.996 191.463 201.136 190.873 201.136ZM190.873 200.233C191.321 200.233 191.691 200.118 191.98 199.888C192.27 199.658 192.485 199.355 192.624 198.98C192.763 198.605 192.833 198.199 192.833 197.761C192.833 197.324 192.763 196.916 192.624 196.538C192.485 196.161 192.27 195.855 191.98 195.622C191.691 195.389 191.321 195.273 190.873 195.273C190.424 195.273 190.054 195.389 189.765 195.622C189.475 195.855 189.26 196.161 189.121 196.538C188.982 196.916 188.912 197.324 188.912 197.761C188.912 198.199 188.982 198.605 189.121 198.98C189.26 199.355 189.475 199.658 189.765 199.888C190.054 200.118 190.424 200.233 190.873 200.233ZM199.499 198.324V194.455H200.504V201H199.499V199.892H199.43C199.277 200.224 199.038 200.507 198.714 200.74C198.391 200.97 197.982 201.085 197.487 201.085C197.078 201.085 196.714 200.996 196.396 200.817C196.078 200.635 195.828 200.362 195.646 199.999C195.464 199.632 195.374 199.17 195.374 198.614V194.455H196.379V198.545C196.379 199.023 196.513 199.403 196.78 199.688C197.05 199.972 197.393 200.114 197.811 200.114C198.061 200.114 198.315 200.05 198.574 199.922C198.835 199.794 199.054 199.598 199.23 199.334C199.409 199.07 199.499 198.733 199.499 198.324ZM203.352 197.062V201H202.346V194.455H203.318V195.477H203.403C203.556 195.145 203.789 194.878 204.102 194.676C204.414 194.472 204.818 194.369 205.312 194.369C205.755 194.369 206.143 194.46 206.475 194.642C206.808 194.821 207.066 195.094 207.251 195.46C207.436 195.824 207.528 196.284 207.528 196.841V201H206.522V196.909C206.522 196.395 206.389 195.994 206.122 195.707C205.855 195.418 205.488 195.273 205.022 195.273C204.701 195.273 204.414 195.342 204.162 195.482C203.912 195.621 203.714 195.824 203.569 196.091C203.424 196.358 203.352 196.682 203.352 197.062ZM211.837 201.136C211.292 201.136 210.81 200.999 210.393 200.723C209.975 200.445 209.648 200.053 209.413 199.547C209.177 199.038 209.059 198.438 209.059 197.744C209.059 197.057 209.177 196.46 209.413 195.955C209.648 195.449 209.977 195.058 210.397 194.783C210.817 194.507 211.303 194.369 211.854 194.369C212.281 194.369 212.617 194.44 212.864 194.582C213.114 194.722 213.305 194.881 213.435 195.06C213.569 195.236 213.673 195.381 213.746 195.494H213.832V192.273H214.837V201H213.866V199.994H213.746C213.673 200.114 213.567 200.264 213.431 200.446C213.295 200.625 213.1 200.786 212.847 200.928C212.594 201.067 212.258 201.136 211.837 201.136ZM211.974 200.233C212.377 200.233 212.718 200.128 212.996 199.918C213.275 199.705 213.487 199.411 213.631 199.036C213.776 198.658 213.849 198.222 213.849 197.727C213.849 197.239 213.778 196.811 213.636 196.445C213.494 196.075 213.283 195.788 213.005 195.584C212.727 195.376 212.383 195.273 211.974 195.273C211.548 195.273 211.192 195.382 210.908 195.601C210.627 195.817 210.415 196.111 210.273 196.483C210.134 196.852 210.065 197.267 210.065 197.727C210.065 198.193 210.136 198.616 210.278 198.997C210.423 199.375 210.636 199.676 210.917 199.901C211.201 200.122 211.553 200.233 211.974 200.233Z" fill="white"/>
</g>
<defs>
<filter id="filter0_d_125_24" x="0" y="0" width="258" height="257" filterUnits="userSpaceOnUse" color-interpolation-filters="sRGB">
<feFlood flood-opacity="0" result="BackgroundImageFix"/>
<feColorMatrix in="SourceAlpha" type="matrix" values="0 0 0 0 0 0 0 0 0 0 0 0 0 0 0 0 0 0 127 0" result="hardAlpha"/>
<feOffset dy="4"/>
<feGaussianBlur stdDeviation="2"/>
<feComposite in2="hardAlpha" operator="out"/>
<feColorMatrix type="matrix" values="0 0 0 0 0 0 0 0 0 0 0 0 0 0 0 0 0 0 0.25 0"/>
<feBlend mode="normal" in2="BackgroundImageFix" result="effect1_dropShadow_125_24"/>
<feBlend mode="normal" in="SourceGraphic" in2="effect1_dropShadow_125_24" result="shape"/>
</filter>
</defs>
</svg>
